<svg width="38" height="38" viewBox="0 0 38 38" fill="none" xmlns="http://www.w3.org/2000/svg">
<g id="Group 23">
<g id="Group 22">
<g id="Whatsapp">
<path id="Vector" d="M35.5908 11.3024C34.6809 9.2918 33.3748 7.48668 31.7164 5.93105C30.058 4.3901 28.1355 3.17201 25.9929 2.32082C23.7768 1.44027 21.4287 1 19.0072 1C16.5857 1 14.2375 1.44027 12.0215 2.32082C9.87885 3.17201 7.95632 4.37542 6.29796 5.93105C4.6396 7.48668 3.33347 9.2918 2.42358 11.3024C1.48433 13.3863 1 15.6171 1 17.9065C1 21.913 2.49691 25.758 5.24128 28.8106L3.7737 36.8088L11.5812 33.3307C13.9147 34.3286 16.3949 34.8276 18.9925 34.8276C21.414 34.8276 23.7621 34.3873 25.9782 33.5068C28.1208 32.6556 30.0433 31.4522 31.7017 29.8966C33.3601 28.3409 34.6662 26.5358 35.5761 24.5252C36.5153 22.4413 36.9997 20.2106 36.9997 17.9211C37.0144 15.6171 36.53 13.401 35.5908 11.3024Z" stroke="white"/>
<path id="Vector_2" d="M26.3157 21.2818C25.5526 20.9003 24.995 20.6654 24.5987 20.5187C24.3492 20.4306 23.7622 20.1665 23.5567 20.3279C22.911 20.8562 22.2212 22.3532 21.4874 22.632C19.6676 22.2798 17.9799 21.0323 16.6591 19.7555C16.0721 19.1979 14.9861 17.6129 14.7513 17.1873C14.7073 16.747 15.4997 16.16 15.6758 15.8224C16.5857 14.7951 15.896 14.1494 15.7786 13.7238C15.5731 13.2835 15.2209 12.491 14.9127 11.8453C14.6486 11.4197 14.5898 10.7887 14.1202 10.5538C12.1243 9.52654 10.9796 11.5812 10.51 12.6525C7.67758 19.4767 24.7014 32.4648 28.1649 23.5125C28.341 22.7347 28.2676 22.4412 28.0035 22.089C27.4751 21.7221 26.8587 21.5607 26.3157 21.2818Z" stroke="white"/>
</g>
</g>
</g>
</svg>
